<svg xmlns="http://www.w3.org/2000/svg" xmlns:xlink="http://www.w3.org/1999/xlink" version="1.1" width="1000" height="1000" viewBox="0 0 1000 1000" xml:space="preserve">
<desc>Created with Fabric.js 3.5.0</desc>
<defs>
</defs>
<rect x="0" y="0" width="100%" height="100%" fill="rgba(255,255,255,0)"/>
<g transform="matrix(1 0 0 1 500 500)" id="93352">
<g style="" vector-effect="non-scaling-stroke">
		<g transform="matrix(1 0 0 1 -450 -450)">
<rect style="stroke: none; stroke-width: 1; stroke-dasharray: none; stroke-linecap: butt; stroke-dashoffset: 0; stroke-linejoin: miter; stroke-miterlimit: 4; is-custom-font: none; font-file-url: none; fill: rgb(255,255,255); fill-opacity: 0; fill-rule: nonzero; opacity: 1;" x="-50" y="-50" rx="0" ry="0" width="100" height="100"/>
</g>
		<g transform="matrix(1.8247 0 0 1.8247 98.262 241.1882)" id="Layer_1">
<path style="stroke: none; stroke-width: 1; stroke-dasharray: none; stroke-linecap: butt; stroke-dashoffset: 0; stroke-linejoin: miter; stroke-miterlimit: 4; is-custom-font: none; font-file-url: none; fill: rgb(37,100,197); fill-rule: nonzero; opacity: 1;" vector-effect="non-scaling-stroke" transform=" translate(-309.8566, -388.1852)" d="M 355.818 421.959 l -79.734 -79.734 c -2.466 -2.466 -6.171 -3.202 -9.392 -1.868 s -5.32 4.477 -5.32 7.961 v 79.734 c 0 4.759 3.857 8.618 8.617 8.618 h 79.734 c 3.485 0 6.629 -2.099 7.961 -5.32 C 359.019 428.129 358.282 424.423 355.818 421.959 z M 278.607 419.434 v -50.311 l 50.311 50.311 H 278.607 z" stroke-linecap="round"/>
</g>
		<g transform="matrix(1.8247 0 0 1.8247 -0.0098 -0.011)" id="Layer_1">
<path style="stroke: none; stroke-width: 1; stroke-dasharray: none; stroke-linecap: butt; stroke-dashoffset: 0; stroke-linejoin: miter; stroke-miterlimit: 4; is-custom-font: none; font-file-url: none; fill: rgb(37,100,197); fill-rule: nonzero; opacity: 1;" vector-effect="non-scaling-stroke" transform=" translate(-256.0002, -255.9995)" d="M 503.749 166.189 c -1.453 -2.938 -4.447 -4.797 -7.725 -4.797 h -46.949 V 133.03 c 0 -4.759 -3.857 -8.617 -8.617 -8.617 H 208.16 V 51.776 c 0 -4.759 -3.857 -8.617 -8.617 -8.617 h -53.425 c -4.76 0 -8.617 3.858 -8.617 8.617 v 72.637 H 85.428 V 64.827 c 0 -4.759 -3.857 -8.617 -8.617 -8.617 H 42.72 c -11.416 0 -22.145 4.442 -30.216 12.515 C 4.439 76.802 0 87.53 0.002 98.928 v 287.121 C 0.001 386.195 0 386.342 0 386.489 c 0 11.415 4.442 22.144 12.509 30.209 c 8.066 8.067 18.794 12.509 30.211 12.509 H 229.2 v 31.016 c 0 4.759 3.857 8.617 8.617 8.617 h 189.576 c 3.485 0 6.629 -2.099 7.961 -5.32 c 1.334 -3.221 0.597 -6.926 -1.867 -9.391 l -24.923 -24.923 h 31.893 c 4.76 0 8.617 -3.858 8.617 -8.617 V 242.033 h 46.949 c 3.278 0 6.271 -1.859 7.725 -4.797 C 514.751 214.992 514.751 188.433 503.749 166.189 z M 154.735 301.671 h 12.063 c 4.76 0 8.617 -3.858 8.617 -8.617 s -3.857 -8.617 -8.617 -8.617 h -12.063 v -23.782 h 12.063 c 4.76 0 8.617 -3.858 8.617 -8.618 c 0 -4.759 -3.857 -8.617 -8.617 -8.617 h -12.063 v -23.782 h 12.063 c 4.76 0 8.617 -3.858 8.617 -8.617 s -3.857 -8.617 -8.617 -8.617 h -12.063 V 178.62 h 12.063 c 4.76 0 8.617 -3.858 8.617 -8.617 s -3.857 -8.617 -8.617 -8.617 h -12.063 v -23.782 h 12.063 c 4.76 0 8.617 -3.858 8.617 -8.617 c 0 -4.759 -3.857 -8.617 -8.617 -8.617 h -12.063 V 96.585 h 12.063 c 4.76 0 8.617 -3.858 8.617 -8.617 s -3.857 -8.617 -8.617 -8.617 h -12.063 V 60.394 h 36.19 v 260.235 h -36.19 V 301.671 z M 24.697 80.904 c 4.811 -4.811 11.211 -7.46 18.023 -7.46 h 25.473 v 270.325 H 42.72 c -9.542 0 -18.363 3.145 -25.482 8.452 L 17.235 98.928 C 17.235 92.126 19.887 85.722 24.697 80.904 z M 246.435 451.606 V 291.453 L 406.59 451.606 H 246.435 z M 431.84 411.973 L 431.84 411.973 h -40.51 L 243.911 264.556 c -2.466 -2.465 -6.172 -3.203 -9.392 -1.868 c -3.221 1.334 -5.32 4.477 -5.32 7.961 v 141.325 H 42.72 c -6.812 0 -13.212 -2.65 -18.023 -7.46 c -4.811 -4.812 -7.462 -11.213 -7.462 -18.024 c 0 0 0 0 0 -0.001 l 0.002 -0.338 c 0.182 -13.897 11.543 -25.146 25.482 -25.146 h 34.091 c 4.76 0 8.617 -3.858 8.617 -8.617 V 141.649 H 137.5 v 187.597 c 0 4.759 3.857 8.617 8.617 8.617 h 53.425 c 4.76 0 8.617 -3.858 8.617 -8.617 V 141.649 h 223.68 v 19.744 H 331.791 c -1.709 0 -3.379 0.508 -4.799 1.46 l -47.285 31.702 c -2.386 1.601 -3.818 4.285 -3.818 7.157 s 1.432 5.558 3.818 7.157 l 47.285 31.703 c 1.419 0.951 3.09 1.46 4.799 1.46 H 431.84 V 411.973 z M 320.77 187.773 l 6.549 -4.392 c 3.18 11.991 3.18 24.67 0 36.661 l -6.549 -4.391 c 1.701 -4.413 2.583 -9.124 2.583 -13.941 C 323.354 196.897 322.47 192.188 320.77 187.773 z M 306.119 201.71 c 0 1.312 -0.131 2.606 -0.361 3.876 l -5.778 -3.874 l 5.778 -3.873 C 305.988 199.108 306.119 200.401 306.119 201.71 z M 453.939 224.799 h -110.06 c 1.28 -4.755 2.166 -9.593 2.64 -14.468 H 457.71 C 457.035 215.263 455.778 220.122 453.939 224.799 z M 346.519 193.095 c -0.473 -4.875 -1.359 -9.714 -2.639 -14.467 h 110.06 c 1.838 4.676 3.095 9.534 3.77 14.467 H 346.519 z M 490.424 224.799 h -18.256 c 4.486 -15.019 4.486 -31.153 0 -46.17 h 18.256 C 496.228 193.396 496.228 210.029 490.424 224.799 z" stroke-linecap="round"/>
</g>
</g>
</g>
</svg>