<svg xmlns="http://www.w3.org/2000/svg" xmlns:xlink="http://www.w3.org/1999/xlink" version="1.1" width="1000" height="1000" viewBox="0 0 1000 1000" xml:space="preserve">
<desc>Created with Fabric.js 3.5.0</desc>
<defs>
</defs>
<rect x="0" y="0" width="100%" height="100%" fill="rgba(255,255,255,0)"/>
<g transform="matrix(1.0844 0 0 1.0844 500.008 491.0739)" id="338792">
<g style="" vector-effect="non-scaling-stroke">
		<g transform="matrix(1 0 0 1 -450 -450)">
<rect style="stroke: none; stroke-width: 1; stroke-dasharray: none; stroke-linecap: butt; stroke-dashoffset: 0; stroke-linejoin: miter; stroke-miterlimit: 4; is-custom-font: none; font-file-url: none; fill: rgb(255,255,255); fill-opacity: 0; fill-rule: nonzero; opacity: 1;" x="-50" y="-50" rx="0" ry="0" width="100" height="100"/>
</g>
		<g transform="matrix(8.5196 0 0 9.9248 -13.2068 9.1423)" id="Layer_1">
<path style="stroke: none; stroke-width: 1; stroke-dasharray: none; stroke-linecap: butt; stroke-dashoffset: 0; stroke-linejoin: miter; stroke-miterlimit: 4; is-custom-font: none; font-file-url: none; fill: rgb(37,100,197); fill-rule: nonzero; opacity: 1;" vector-effect="non-scaling-stroke" transform=" translate(-48.65, -51.3)" d="M 69.3 8.6 H 28 c -5.3 0 -9.7 4.3 -9.7 9.6 v 66.2 c 0 5.3 4.3 9.6 9.7 9.6 h 41.3 c 5.3 0 9.7 -4.3 9.7 -9.6 V 18.2 C 79 12.9 74.7 8.6 69.3 8.6 z M 76 84.4 c 0 3.7 -3 6.6 -6.7 6.6 H 28 c -3.7 0 -6.7 -3 -6.7 -6.6 V 18.2 c 0 -3.7 3 -6.6 6.7 -6.6 h 41.3 c 3.7 0 6.7 3 6.7 6.6 V 84.4 z" stroke-linecap="round"/>
</g>
		<g transform="matrix(8.5196 0 0 9.9248 -14.0588 -305.4739)" id="Layer_1">
<path style="stroke: none; stroke-width: 1; stroke-dasharray: none; stroke-linecap: butt; stroke-dashoffset: 0; stroke-linejoin: miter; stroke-miterlimit: 4; is-custom-font: none; font-file-url: none; fill: rgb(37,100,197); fill-rule: nonzero; opacity: 1;" vector-effect="non-scaling-stroke" transform=" translate(-48.55, -19.6)" d="M 60.9 18.1 H 36.2 c -0.8 0 -1.5 0.7 -1.5 1.5 s 0.7 1.5 1.5 1.5 h 24.7 c 0.8 0 1.5 -0.7 1.5 -1.5 S 61.7 18.1 60.9 18.1 z" stroke-linecap="round"/>
</g>
		<g transform="matrix(8.5196 0 0 9.9248 -13.6329 297.4578)" id="Layer_1">
<path style="stroke: none; stroke-width: 1; stroke-dasharray: none; stroke-linecap: butt; stroke-dashoffset: 0; stroke-linejoin: miter; stroke-miterlimit: 4; is-custom-font: none; font-file-url: none; fill: rgb(37,100,197); fill-rule: nonzero; opacity: 1;" vector-effect="non-scaling-stroke" transform=" translate(-48.6, -80.35)" d="M 48.6 75.4 c -2.8 0 -5 2.3 -5 5 c 0 1.3 0.5 2.6 1.5 3.5 c 0.9 0.9 2.2 1.4 3.5 1.4 c 0 0 0 0 0 0 c 2.8 0 5 -2.3 5 -5 C 53.6 77.6 51.4 75.4 48.6 75.4 z M 48.7 82.4 C 48.7 82.4 48.7 82.4 48.7 82.4 c -0.5 0 -1 -0.2 -1.4 -0.6 c -0.4 -0.4 -0.6 -0.9 -0.6 -1.4 c 0 -1.1 0.9 -2 2 -2 c 0 0 0 0 0 0 c 1.1 0 2 0.9 2 2 C 50.7 81.5 49.8 82.4 48.7 82.4 z" stroke-linecap="round"/>
</g>
</g>
</g>
</svg>