<svg xmlns="http://www.w3.org/2000/svg" xmlns:xlink="http://www.w3.org/1999/xlink" version="1.1" width="1000" height="1000" viewBox="0 0 1000 1000" xml:space="preserve">
<desc>Created with Fabric.js 3.5.0</desc>
<defs>
</defs>
<rect x="0" y="0" width="100%" height="100%" fill="rgba(255,255,255,0)"/>
<g transform="matrix(1.9903 0 0 1.9903 499.9891 499.9891)" id="4921">
<g style="" vector-effect="non-scaling-stroke">
		<g transform="matrix(1 0 0 1 0 0)" id="Capa_1">
<path style="stroke: none; stroke-width: 1; stroke-dasharray: none; stroke-linecap: butt; stroke-dashoffset: 0; stroke-linejoin: miter; stroke-miterlimit: 4; is-custom-font: none; font-file-url: none; fill: rgb(39,216,56); fill-rule: nonzero; opacity: 1;" transform=" translate(-232.5, -232.5)" d="M 457.5 163.359 h -2.282 V 92.598 c 0 -9.53 -7.753 -17.283 -17.283 -17.283 h -28.815 c -1.34 -7.753 -8.096 -13.674 -16.226 -13.674 h -53.75 c -8.129 0 -14.886 5.921 -16.226 13.674 H 165.541 c -4.142 0 -7.5 3.358 -7.5 7.5 v 41.413 h -14.348 v -22.02 c 0 -4.142 -3.358 -7.5 -7.5 -7.5 H 36.848 c -4.142 0 -7.5 3.358 -7.5 7.5 v 22.02 h -2.282 c -9.53 0 -17.283 7.753 -17.283 17.283 v 21.848 H 7.5 c -4.142 0 -7.5 3.358 -7.5 7.5 s 3.358 7.5 7.5 7.5 h 2.283 v 207.717 c 0 9.53 7.753 17.283 17.283 17.283 h 410.869 c 9.53 0 17.283 -7.753 17.283 -17.283 V 178.359 h 2.282 c 4.143 0 7.5 -3.358 7.5 -7.5 S 461.643 163.359 457.5 163.359 z M 337.66 78.125 c 0 -0.818 0.665 -1.484 1.483 -1.484 h 53.75 c 0.818 0 1.483 0.666 1.483 1.484 v 53.75 c 0 0.818 -0.665 1.484 -1.483 1.484 h -53.75 c -0.818 0 -1.483 -0.666 -1.483 -1.484 V 78.125 z M 44.348 109.708 h 84.346 v 14.52 H 44.348 V 109.708 z M 24.783 141.511 c 0 -1.237 1.045 -2.283 2.283 -2.283 h 138.476 c 4.142 0 7.5 -3.358 7.5 -7.5 V 90.315 H 322.66 v 41.56 c 0 9.089 7.395 16.484 16.483 16.484 h 53.75 c 9.089 0 16.483 -7.395 16.483 -16.484 v -41.56 h 28.558 c 1.237 0 2.283 1.045 2.283 2.283 v 70.761 H 24.783 V 141.511 z M 437.935 388.359 H 27.065 c -1.237 0 -2.283 -1.045 -2.283 -2.283 v -12.065 h 51.196 c 4.142 0 7.5 -3.358 7.5 -7.5 s -3.358 -7.5 -7.5 -7.5 H 24.783 V 178.359 H 207.73 c -30.654 18.435 -51.208 52.024 -51.208 90.326 c 0 38.302 20.554 71.891 51.208 90.326 H 105.979 c -4.142 0 -7.5 3.358 -7.5 7.5 s 3.358 7.5 7.5 7.5 h 334.239 v 12.065 C 440.218 387.313 439.172 388.359 437.935 388.359 z M 261.848 178.359 c 49.806 0 90.326 40.52 90.326 90.326 c 0 49.806 -40.521 90.326 -90.326 90.326 s -90.326 -40.52 -90.326 -90.326 C 171.522 218.879 212.042 178.359 261.848 178.359 z M 440.218 359.011 H 315.966 c 30.655 -18.436 51.208 -52.024 51.208 -90.326 c 0 -38.302 -20.554 -71.89 -51.208 -90.326 h 124.252 V 359.011 z" stroke-linecap="round"/>
</g>
		<g transform="matrix(1 0 0 1 163.097 36.185)" id="Capa_1">
<path style="stroke: none; stroke-width: 1; stroke-dasharray: none; stroke-linecap: butt; stroke-dashoffset: 0; stroke-linejoin: miter; stroke-miterlimit: 4; is-custom-font: none; font-file-url: none; fill: rgb(39,216,56); fill-rule: nonzero; opacity: 1;" transform=" translate(-395.597, -268.685)" d="M 389.021 287.598 c -4.143 0 -7.5 3.358 -7.5 7.5 s 3.357 7.5 7.5 7.5 c 11.388 0 20.652 -9.264 20.652 -20.652 v -26.522 c 0 -11.388 -9.265 -20.652 -20.652 -20.652 c -4.143 0 -7.5 3.358 -7.5 7.5 s 3.357 7.5 7.5 7.5 c 3.117 0 5.652 2.536 5.652 5.652 v 26.522 C 394.674 285.062 392.139 287.598 389.021 287.598 z" stroke-linecap="round"/>
</g>
		<g transform="matrix(1 0 0 1 29.3485 36.1845)" id="Capa_1">
<path style="stroke: none; stroke-width: 1; stroke-dasharray: none; stroke-linecap: butt; stroke-dashoffset: 0; stroke-linejoin: miter; stroke-miterlimit: 4; is-custom-font: none; font-file-url: none; fill: rgb(39,216,56); fill-rule: nonzero; opacity: 1;" transform=" translate(-261.8485, -268.6845)" d="M 261.848 344.663 c 41.895 0 75.979 -34.084 75.979 -75.979 s -34.084 -75.978 -75.979 -75.978 s -75.978 34.083 -75.978 75.978 S 219.953 344.663 261.848 344.663 z M 261.848 207.707 c 33.624 0 60.979 27.354 60.979 60.978 s -27.354 60.979 -60.979 60.979 c -33.624 0 -60.978 -27.355 -60.978 -60.979 S 228.224 207.707 261.848 207.707 z" stroke-linecap="round"/>
</g>
		<g transform="matrix(1 0 0 1 48.5875 55.4235)" id="Capa_1">
<path style="stroke: none; stroke-width: 1; stroke-dasharray: none; stroke-linecap: butt; stroke-dashoffset: 0; stroke-linejoin: miter; stroke-miterlimit: 4; is-custom-font: none; font-file-url: none; fill: rgb(39,216,56); fill-rule: nonzero; opacity: 1;" transform=" translate(-281.0875, -287.9235)" d="M 261.848 314.663 c 25.353 0 45.979 -20.626 45.979 -45.979 c 0 -4.142 -3.357 -7.5 -7.5 -7.5 s -7.5 3.358 -7.5 7.5 c 0 17.082 -13.896 30.979 -30.979 30.979 c -4.143 0 -7.5 3.358 -7.5 7.5 S 257.705 314.663 261.848 314.663 z" stroke-linecap="round"/>
</g>
</g>
</g>
</svg>